<?xml version="1.0" encoding="UTF-8" standalone="no"?>
<!DOCTYPE svg PUBLIC "-//W3C//DTD SVG 1.1//EN"
 "http://www.w3.org/Graphics/SVG/1.1/DTD/svg11.dtd">
<!-- Generated by graphviz version 2.47.3 (20210619.1520)
 -->
<!-- Title: dependencies Pages: 1 -->
<svg width="2114pt" height="247pt"
 viewBox="0.00 0.00 2114.00 246.80" xmlns="http://www.w3.org/2000/svg" xmlns:xlink="http://www.w3.org/1999/xlink">
<g id="graph0" class="graph" transform="scale(1 1) rotate(0) translate(4 242.8)">
<title>dependencies</title>
<polygon fill="white" stroke="transparent" points="-4,4 -4,-242.8 2110,-242.8 2110,4 -4,4"/>
<text text-anchor="middle" x="1053" y="-8.2" font-family="sans-serif" font-size="14.00">dependencies</text>
<g id="clust1" class="cluster">
<title>cluster_AppModule</title>
<polygon fill="none" stroke="black" stroke-dasharray="1,5" points="8,-32.8 8,-230.8 2098,-230.8 2098,-32.8 8,-32.8"/>
</g>
<g id="clust14" class="cluster">
<title>cluster_AppModule_imports</title>
<polygon fill="none" stroke="black" points="1946,-40.8 1946,-92.8 2090,-92.8 2090,-40.8 1946,-40.8"/>
</g>
<g id="clust16" class="cluster">
<title>cluster_AppModule_bootstrap</title>
<polygon fill="none" stroke="black" points="1062,-170.8 1062,-222.8 1186,-222.8 1186,-170.8 1062,-170.8"/>
</g>
<g id="clust2" class="cluster">
<title>cluster_AppModule_declarations</title>
<polygon fill="none" stroke="black" points="16,-40.8 16,-92.8 1938,-92.8 1938,-40.8 16,-40.8"/>
</g>
<!-- AppComponent -->
<g id="node1" class="node">
<title>AppComponent</title>
<polygon fill="#ffffb3" stroke="black" points="1929.94,-84.8 1824.06,-84.8 1824.06,-48.8 1929.94,-48.8 1929.94,-84.8"/>
<text text-anchor="middle" x="1877" y="-62.6" font-family="Times,serif" font-size="14.00">AppComponent</text>
</g>
<!-- AppModule -->
<g id="node12" class="node">
<title>AppModule</title>
<polygon fill="#8dd3c7" stroke="black" points="1165.66,-149.8 1162.66,-153.8 1141.66,-153.8 1138.66,-149.8 1082.34,-149.8 1082.34,-113.8 1165.66,-113.8 1165.66,-149.8"/>
<text text-anchor="middle" x="1124" y="-127.6" font-family="Times,serif" font-size="14.00">AppModule</text>
</g>
<!-- AppComponent&#45;&gt;AppModule -->
<g id="edge1" class="edge">
<title>AppComponent&#45;&gt;AppModule</title>
<path fill="none" stroke="black" d="M1877,-85.08C1877,-106.12 1877,-137.8 1877,-137.8 1877,-137.8 1175.83,-137.8 1175.83,-137.8"/>
<polygon fill="black" stroke="black" points="1175.83,-134.3 1165.83,-137.8 1175.83,-141.3 1175.83,-134.3"/>
</g>
<!-- DetailsDialogComponent -->
<g id="node2" class="node">
<title>DetailsDialogComponent</title>
<polygon fill="#ffffb3" stroke="black" points="1806.59,-84.8 1647.41,-84.8 1647.41,-48.8 1806.59,-48.8 1806.59,-84.8"/>
<text text-anchor="middle" x="1727" y="-62.6" font-family="Times,serif" font-size="14.00">DetailsDialogComponent</text>
</g>
<!-- DetailsDialogComponent&#45;&gt;AppModule -->
<g id="edge2" class="edge">
<title>DetailsDialogComponent&#45;&gt;AppModule</title>
<path fill="none" stroke="black" d="M1727,-84.91C1727,-104.14 1727,-131.8 1727,-131.8 1727,-131.8 1175.92,-131.8 1175.92,-131.8"/>
<polygon fill="black" stroke="black" points="1175.92,-128.3 1165.92,-131.8 1175.92,-135.3 1175.92,-128.3"/>
</g>
<!-- DirectorDialogComponent -->
<g id="node3" class="node">
<title>DirectorDialogComponent</title>
<polygon fill="#ffffb3" stroke="black" points="1629.07,-84.8 1462.93,-84.8 1462.93,-48.8 1629.07,-48.8 1629.07,-84.8"/>
<text text-anchor="middle" x="1546" y="-62.6" font-family="Times,serif" font-size="14.00">DirectorDialogComponent</text>
</g>
<!-- DirectorDialogComponent&#45;&gt;AppModule -->
<g id="edge3" class="edge">
<title>DirectorDialogComponent&#45;&gt;AppModule</title>
<path fill="none" stroke="black" d="M1546,-84.82C1546,-102.17 1546,-125.8 1546,-125.8 1546,-125.8 1176.01,-125.8 1176.01,-125.8"/>
<polygon fill="black" stroke="black" points="1176.01,-122.3 1166.01,-125.8 1176.01,-129.3 1176.01,-122.3"/>
</g>
<!-- GenreDialogComponent -->
<g id="node4" class="node">
<title>GenreDialogComponent</title>
<polygon fill="#ffffb3" stroke="black" points="1444.63,-84.8 1291.37,-84.8 1291.37,-48.8 1444.63,-48.8 1444.63,-84.8"/>
<text text-anchor="middle" x="1368" y="-62.6" font-family="Times,serif" font-size="14.00">GenreDialogComponent</text>
</g>
<!-- GenreDialogComponent&#45;&gt;AppModule -->
<g id="edge4" class="edge">
<title>GenreDialogComponent&#45;&gt;AppModule</title>
<path fill="none" stroke="black" d="M1368,-85.04C1368,-100.37 1368,-119.8 1368,-119.8 1368,-119.8 1175.67,-119.8 1175.67,-119.8"/>
<polygon fill="black" stroke="black" points="1175.67,-116.3 1165.67,-119.8 1175.67,-123.3 1175.67,-116.3"/>
</g>
<!-- MovieCardComponent -->
<g id="node5" class="node">
<title>MovieCardComponent</title>
<polygon fill="#ffffb3" stroke="black" points="1273.59,-84.8 1128.41,-84.8 1128.41,-48.8 1273.59,-48.8 1273.59,-84.8"/>
<text text-anchor="middle" x="1201" y="-62.6" font-family="Times,serif" font-size="14.00">MovieCardComponent</text>
</g>
<!-- MovieCardComponent&#45;&gt;AppModule -->
<g id="edge5" class="edge">
<title>MovieCardComponent&#45;&gt;AppModule</title>
<path fill="none" stroke="black" d="M1147.14,-84.91C1147.14,-84.91 1147.14,-103.79 1147.14,-103.79"/>
<polygon fill="black" stroke="black" points="1143.64,-103.79 1147.14,-113.79 1150.64,-103.79 1143.64,-103.79"/>
</g>
<!-- NavBarComponent -->
<g id="node6" class="node">
<title>NavBarComponent</title>
<polygon fill="#ffffb3" stroke="black" points="1110.37,-84.8 985.63,-84.8 985.63,-48.8 1110.37,-48.8 1110.37,-84.8"/>
<text text-anchor="middle" x="1048" y="-62.6" font-family="Times,serif" font-size="14.00">NavBarComponent</text>
</g>
<!-- NavBarComponent&#45;&gt;AppModule -->
<g id="edge6" class="edge">
<title>NavBarComponent&#45;&gt;AppModule</title>
<path fill="none" stroke="black" d="M1096.3,-84.91C1096.3,-84.91 1096.3,-103.79 1096.3,-103.79"/>
<polygon fill="black" stroke="black" points="1092.8,-103.79 1096.3,-113.79 1099.8,-103.79 1092.8,-103.79"/>
</g>
<!-- UserLoginFormComponent -->
<g id="node7" class="node">
<title>UserLoginFormComponent</title>
<polygon fill="#ffffb3" stroke="black" points="967.54,-84.8 796.46,-84.8 796.46,-48.8 967.54,-48.8 967.54,-84.8"/>
<text text-anchor="middle" x="882" y="-62.6" font-family="Times,serif" font-size="14.00">UserLoginFormComponent</text>
</g>
<!-- UserLoginFormComponent&#45;&gt;AppModule -->
<g id="edge7" class="edge">
<title>UserLoginFormComponent&#45;&gt;AppModule</title>
<path fill="none" stroke="black" d="M882,-85.04C882,-100.37 882,-119.8 882,-119.8 882,-119.8 1072.12,-119.8 1072.12,-119.8"/>
<polygon fill="black" stroke="black" points="1072.12,-123.3 1082.12,-119.8 1072.12,-116.3 1072.12,-123.3"/>
</g>
<!-- UserProfileComponent -->
<g id="node8" class="node">
<title>UserProfileComponent</title>
<polygon fill="#ffffb3" stroke="black" points="777.86,-84.8 632.14,-84.8 632.14,-48.8 777.86,-48.8 777.86,-84.8"/>
<text text-anchor="middle" x="705" y="-62.6" font-family="Times,serif" font-size="14.00">UserProfileComponent</text>
</g>
<!-- UserProfileComponent&#45;&gt;AppModule -->
<g id="edge8" class="edge">
<title>UserProfileComponent&#45;&gt;AppModule</title>
<path fill="none" stroke="black" d="M705,-84.82C705,-102.17 705,-125.8 705,-125.8 705,-125.8 1072.29,-125.8 1072.29,-125.8"/>
<polygon fill="black" stroke="black" points="1072.29,-129.3 1082.29,-125.8 1072.29,-122.3 1072.29,-129.3"/>
</g>
<!-- UserProfileUpdateComponent -->
<g id="node9" class="node">
<title>UserProfileUpdateComponent</title>
<polygon fill="#ffffb3" stroke="black" points="614.29,-84.8 427.71,-84.8 427.71,-48.8 614.29,-48.8 614.29,-84.8"/>
<text text-anchor="middle" x="521" y="-62.6" font-family="Times,serif" font-size="14.00">UserProfileUpdateComponent</text>
</g>
<!-- UserProfileUpdateComponent&#45;&gt;AppModule -->
<g id="edge9" class="edge">
<title>UserProfileUpdateComponent&#45;&gt;AppModule</title>
<path fill="none" stroke="black" d="M521,-84.91C521,-104.14 521,-131.8 521,-131.8 521,-131.8 1072.08,-131.8 1072.08,-131.8"/>
<polygon fill="black" stroke="black" points="1072.08,-135.3 1082.08,-131.8 1072.08,-128.3 1072.08,-135.3"/>
</g>
<!-- UserRegistrationFormComponent -->
<g id="node10" class="node">
<title>UserRegistrationFormComponent</title>
<polygon fill="#ffffb3" stroke="black" points="410.03,-84.8 203.97,-84.8 203.97,-48.8 410.03,-48.8 410.03,-84.8"/>
<text text-anchor="middle" x="307" y="-62.6" font-family="Times,serif" font-size="14.00">UserRegistrationFormComponent</text>
</g>
<!-- UserRegistrationFormComponent&#45;&gt;AppModule -->
<g id="edge10" class="edge">
<title>UserRegistrationFormComponent&#45;&gt;AppModule</title>
<path fill="none" stroke="black" d="M307,-85.08C307,-106.12 307,-137.8 307,-137.8 307,-137.8 1072.08,-137.8 1072.08,-137.8"/>
<polygon fill="black" stroke="black" points="1072.08,-141.3 1082.08,-137.8 1072.08,-134.3 1072.08,-141.3"/>
</g>
<!-- WelcomePageComponent -->
<g id="node11" class="node">
<title>WelcomePageComponent</title>
<polygon fill="#ffffb3" stroke="black" points="186.18,-84.8 23.82,-84.8 23.82,-48.8 186.18,-48.8 186.18,-84.8"/>
<text text-anchor="middle" x="105" y="-62.6" font-family="Times,serif" font-size="14.00">WelcomePageComponent</text>
</g>
<!-- WelcomePageComponent&#45;&gt;AppModule -->
<g id="edge11" class="edge">
<title>WelcomePageComponent&#45;&gt;AppModule</title>
<path fill="none" stroke="black" d="M105,-85.05C105,-107.82 105,-143.8 105,-143.8 105,-143.8 1072.15,-143.8 1072.15,-143.8"/>
<polygon fill="black" stroke="black" points="1072.15,-147.3 1082.15,-143.8 1072.15,-140.3 1072.15,-147.3"/>
</g>
<!-- AppComponent  -->
<g id="node14" class="node">
<title>AppComponent </title>
<polygon fill="#80b1d3" stroke="black" points="1178.44,-214.8 1069.56,-214.8 1069.56,-178.8 1178.44,-178.8 1178.44,-214.8"/>
<text text-anchor="middle" x="1124" y="-192.6" font-family="Times,serif" font-size="14.00">AppComponent </text>
</g>
<!-- AppModule&#45;&gt;AppComponent  -->
<g id="edge13" class="edge">
<title>AppModule&#45;&gt;AppComponent </title>
<path fill="none" stroke="black" stroke-dasharray="1,5" d="M1124,-149.91C1124,-149.91 1124,-168.79 1124,-168.79"/>
<polygon fill="black" stroke="black" points="1120.5,-168.79 1124,-178.79 1127.5,-168.79 1120.5,-168.79"/>
</g>
<!-- AppRoutingModule -->
<g id="node13" class="node">
<title>AppRoutingModule</title>
<polygon fill="#8dd3c7" stroke="black" points="2082.27,-84.8 2079.27,-88.8 2058.27,-88.8 2055.27,-84.8 1953.73,-84.8 1953.73,-48.8 2082.27,-48.8 2082.27,-84.8"/>
<text text-anchor="middle" x="2018" y="-62.6" font-family="Times,serif" font-size="14.00">AppRoutingModule</text>
</g>
<!-- AppRoutingModule&#45;&gt;AppModule -->
<g id="edge12" class="edge">
<title>AppRoutingModule&#45;&gt;AppModule</title>
<path fill="none" stroke="black" d="M2018,-85.05C2018,-107.82 2018,-143.8 2018,-143.8 2018,-143.8 1175.92,-143.8 1175.92,-143.8"/>
<polygon fill="black" stroke="black" points="1175.92,-140.3 1165.92,-143.8 1175.92,-147.3 1175.92,-140.3"/>
</g>
</g>
</svg>
