<?xml version="1.0" encoding="UTF-8" standalone="no"?>
<!DOCTYPE svg PUBLIC "-//W3C//DTD SVG 1.1//EN"
 "http://www.w3.org/Graphics/SVG/1.1/DTD/svg11.dtd">
<!-- Generated by graphviz version 2.47.3 (20210619.1520)
 -->
<!-- Title: dependencies Pages: 1 -->
<svg width="2114pt" height="247pt"
 viewBox="0.00 0.00 2114.00 246.80" xmlns="http://www.w3.org/2000/svg" xmlns:xlink="http://www.w3.org/1999/xlink">
<g id="graph0" class="graph" transform="scale(1 1) rotate(0) translate(4 242.8)">
<title>dependencies</title>
<polygon fill="white" stroke="transparent" points="-4,4 -4,-242.8 2110,-242.8 2110,4 -4,4"/>
<text text-anchor="middle" x="1053" y="-8.2" font-family="sans-serif" font-size="14.00">dependencies</text>
<g id="clust1" class="cluster">
<title>cluster_AppModule</title>
<polygon fill="none" stroke="black" stroke-dasharray="1,5" points="8,-32.8 8,-230.8 2098,-230.8 2098,-32.8 8,-32.8"/>
</g>
<g id="clust2" class="cluster">
<title>cluster_AppModule_declarations</title>
<polygon fill="none" stroke="black" points="168,-40.8 168,-92.8 2090,-92.8 2090,-40.8 168,-40.8"/>
</g>
<g id="clust14" class="cluster">
<title>cluster_AppModule_imports</title>
<polygon fill="none" stroke="black" points="16,-40.8 16,-92.8 160,-92.8 160,-40.8 16,-40.8"/>
</g>
<g id="clust16" class="cluster">
<title>cluster_AppModule_bootstrap</title>
<polygon fill="none" stroke="black" points="1055,-170.8 1055,-222.8 1179,-222.8 1179,-170.8 1055,-170.8"/>
</g>
<!-- AppComponent -->
<g id="node1" class="node">
<title>AppComponent</title>
<polygon fill="#ffffb3" stroke="black" points="2081.94,-84.8 1976.06,-84.8 1976.06,-48.8 2081.94,-48.8 2081.94,-84.8"/>
<text text-anchor="middle" x="2029" y="-62.6" font-family="Times,serif" font-size="14.00">AppComponent</text>
</g>
<!-- AppModule -->
<g id="node12" class="node">
<title>AppModule</title>
<polygon fill="#8dd3c7" stroke="black" points="1158.66,-149.8 1155.66,-153.8 1134.66,-153.8 1131.66,-149.8 1075.34,-149.8 1075.34,-113.8 1158.66,-113.8 1158.66,-149.8"/>
<text text-anchor="middle" x="1117" y="-127.6" font-family="Times,serif" font-size="14.00">AppModule</text>
</g>
<!-- AppComponent&#45;&gt;AppModule -->
<g id="edge1" class="edge">
<title>AppComponent&#45;&gt;AppModule</title>
<path fill="none" stroke="black" d="M2029,-85.05C2029,-107.82 2029,-143.8 2029,-143.8 2029,-143.8 1168.86,-143.8 1168.86,-143.8"/>
<polygon fill="black" stroke="black" points="1168.86,-140.3 1158.86,-143.8 1168.86,-147.3 1168.86,-140.3"/>
</g>
<!-- DetailsDialogComponent -->
<g id="node2" class="node">
<title>DetailsDialogComponent</title>
<polygon fill="#ffffb3" stroke="black" points="1958.59,-84.8 1799.41,-84.8 1799.41,-48.8 1958.59,-48.8 1958.59,-84.8"/>
<text text-anchor="middle" x="1879" y="-62.6" font-family="Times,serif" font-size="14.00">DetailsDialogComponent</text>
</g>
<!-- DetailsDialogComponent&#45;&gt;AppModule -->
<g id="edge2" class="edge">
<title>DetailsDialogComponent&#45;&gt;AppModule</title>
<path fill="none" stroke="black" d="M1879,-85.08C1879,-106.12 1879,-137.8 1879,-137.8 1879,-137.8 1168.78,-137.8 1168.78,-137.8"/>
<polygon fill="black" stroke="black" points="1168.78,-134.3 1158.78,-137.8 1168.78,-141.3 1168.78,-134.3"/>
</g>
<!-- DirectorDialogComponent -->
<g id="node3" class="node">
<title>DirectorDialogComponent</title>
<polygon fill="#ffffb3" stroke="black" points="1781.07,-84.8 1614.93,-84.8 1614.93,-48.8 1781.07,-48.8 1781.07,-84.8"/>
<text text-anchor="middle" x="1698" y="-62.6" font-family="Times,serif" font-size="14.00">DirectorDialogComponent</text>
</g>
<!-- DirectorDialogComponent&#45;&gt;AppModule -->
<g id="edge3" class="edge">
<title>DirectorDialogComponent&#45;&gt;AppModule</title>
<path fill="none" stroke="black" d="M1698,-84.91C1698,-104.14 1698,-131.8 1698,-131.8 1698,-131.8 1168.78,-131.8 1168.78,-131.8"/>
<polygon fill="black" stroke="black" points="1168.78,-128.3 1158.78,-131.8 1168.78,-135.3 1168.78,-128.3"/>
</g>
<!-- GenreDialogComponent -->
<g id="node4" class="node">
<title>GenreDialogComponent</title>
<polygon fill="#ffffb3" stroke="black" points="1596.63,-84.8 1443.37,-84.8 1443.37,-48.8 1596.63,-48.8 1596.63,-84.8"/>
<text text-anchor="middle" x="1520" y="-62.6" font-family="Times,serif" font-size="14.00">GenreDialogComponent</text>
</g>
<!-- GenreDialogComponent&#45;&gt;AppModule -->
<g id="edge4" class="edge">
<title>GenreDialogComponent&#45;&gt;AppModule</title>
<path fill="none" stroke="black" d="M1520,-84.82C1520,-102.17 1520,-125.8 1520,-125.8 1520,-125.8 1168.99,-125.8 1168.99,-125.8"/>
<polygon fill="black" stroke="black" points="1168.99,-122.3 1158.99,-125.8 1168.99,-129.3 1168.99,-122.3"/>
</g>
<!-- MovieCardComponent -->
<g id="node5" class="node">
<title>MovieCardComponent</title>
<polygon fill="#ffffb3" stroke="black" points="1425.59,-84.8 1280.41,-84.8 1280.41,-48.8 1425.59,-48.8 1425.59,-84.8"/>
<text text-anchor="middle" x="1353" y="-62.6" font-family="Times,serif" font-size="14.00">MovieCardComponent</text>
</g>
<!-- MovieCardComponent&#45;&gt;AppModule -->
<g id="edge5" class="edge">
<title>MovieCardComponent&#45;&gt;AppModule</title>
<path fill="none" stroke="black" d="M1353,-85.04C1353,-100.37 1353,-119.8 1353,-119.8 1353,-119.8 1168.92,-119.8 1168.92,-119.8"/>
<polygon fill="black" stroke="black" points="1168.92,-116.3 1158.92,-119.8 1168.92,-123.3 1168.92,-116.3"/>
</g>
<!-- NavBarComponent -->
<g id="node6" class="node">
<title>NavBarComponent</title>
<polygon fill="#ffffb3" stroke="black" points="1262.37,-84.8 1137.63,-84.8 1137.63,-48.8 1262.37,-48.8 1262.37,-84.8"/>
<text text-anchor="middle" x="1200" y="-62.6" font-family="Times,serif" font-size="14.00">NavBarComponent</text>
</g>
<!-- NavBarComponent&#45;&gt;AppModule -->
<g id="edge6" class="edge">
<title>NavBarComponent&#45;&gt;AppModule</title>
<path fill="none" stroke="black" d="M1148.2,-84.91C1148.2,-84.91 1148.2,-103.79 1148.2,-103.79"/>
<polygon fill="black" stroke="black" points="1144.7,-103.79 1148.2,-113.79 1151.7,-103.79 1144.7,-103.79"/>
</g>
<!-- UserLoginFormComponent -->
<g id="node7" class="node">
<title>UserLoginFormComponent</title>
<polygon fill="#ffffb3" stroke="black" points="1119.54,-84.8 948.46,-84.8 948.46,-48.8 1119.54,-48.8 1119.54,-84.8"/>
<text text-anchor="middle" x="1034" y="-62.6" font-family="Times,serif" font-size="14.00">UserLoginFormComponent</text>
</g>
<!-- UserLoginFormComponent&#45;&gt;AppModule -->
<g id="edge7" class="edge">
<title>UserLoginFormComponent&#45;&gt;AppModule</title>
<path fill="none" stroke="black" d="M1097.47,-84.91C1097.47,-84.91 1097.47,-103.79 1097.47,-103.79"/>
<polygon fill="black" stroke="black" points="1093.97,-103.79 1097.47,-113.79 1100.97,-103.79 1093.97,-103.79"/>
</g>
<!-- UserProfileComponent -->
<g id="node8" class="node">
<title>UserProfileComponent</title>
<polygon fill="#ffffb3" stroke="black" points="929.86,-84.8 784.14,-84.8 784.14,-48.8 929.86,-48.8 929.86,-84.8"/>
<text text-anchor="middle" x="857" y="-62.6" font-family="Times,serif" font-size="14.00">UserProfileComponent</text>
</g>
<!-- UserProfileComponent&#45;&gt;AppModule -->
<g id="edge8" class="edge">
<title>UserProfileComponent&#45;&gt;AppModule</title>
<path fill="none" stroke="black" d="M857,-85.04C857,-100.37 857,-119.8 857,-119.8 857,-119.8 1065.23,-119.8 1065.23,-119.8"/>
<polygon fill="black" stroke="black" points="1065.23,-123.3 1075.23,-119.8 1065.23,-116.3 1065.23,-123.3"/>
</g>
<!-- UserProfileUpdateComponent -->
<g id="node9" class="node">
<title>UserProfileUpdateComponent</title>
<polygon fill="#ffffb3" stroke="black" points="766.29,-84.8 579.71,-84.8 579.71,-48.8 766.29,-48.8 766.29,-84.8"/>
<text text-anchor="middle" x="673" y="-62.6" font-family="Times,serif" font-size="14.00">UserProfileUpdateComponent</text>
</g>
<!-- UserProfileUpdateComponent&#45;&gt;AppModule -->
<g id="edge9" class="edge">
<title>UserProfileUpdateComponent&#45;&gt;AppModule</title>
<path fill="none" stroke="black" d="M673,-84.82C673,-102.17 673,-125.8 673,-125.8 673,-125.8 1065.23,-125.8 1065.23,-125.8"/>
<polygon fill="black" stroke="black" points="1065.23,-129.3 1075.23,-125.8 1065.23,-122.3 1065.23,-129.3"/>
</g>
<!-- UserRegistrationFormComponent -->
<g id="node10" class="node">
<title>UserRegistrationFormComponent</title>
<polygon fill="#ffffb3" stroke="black" points="562.03,-84.8 355.97,-84.8 355.97,-48.8 562.03,-48.8 562.03,-84.8"/>
<text text-anchor="middle" x="459" y="-62.6" font-family="Times,serif" font-size="14.00">UserRegistrationFormComponent</text>
</g>
<!-- UserRegistrationFormComponent&#45;&gt;AppModule -->
<g id="edge10" class="edge">
<title>UserRegistrationFormComponent&#45;&gt;AppModule</title>
<path fill="none" stroke="black" d="M459,-84.91C459,-104.14 459,-131.8 459,-131.8 459,-131.8 1065.34,-131.8 1065.34,-131.8"/>
<polygon fill="black" stroke="black" points="1065.34,-135.3 1075.34,-131.8 1065.34,-128.3 1065.34,-135.3"/>
</g>
<!-- WelcomePageComponent -->
<g id="node11" class="node">
<title>WelcomePageComponent</title>
<polygon fill="#ffffb3" stroke="black" points="338.18,-84.8 175.82,-84.8 175.82,-48.8 338.18,-48.8 338.18,-84.8"/>
<text text-anchor="middle" x="257" y="-62.6" font-family="Times,serif" font-size="14.00">WelcomePageComponent</text>
</g>
<!-- WelcomePageComponent&#45;&gt;AppModule -->
<g id="edge11" class="edge">
<title>WelcomePageComponent&#45;&gt;AppModule</title>
<path fill="none" stroke="black" d="M257,-85.08C257,-106.12 257,-137.8 257,-137.8 257,-137.8 1065.23,-137.8 1065.23,-137.8"/>
<polygon fill="black" stroke="black" points="1065.23,-141.3 1075.23,-137.8 1065.23,-134.3 1065.23,-141.3"/>
</g>
<!-- AppComponent  -->
<g id="node14" class="node">
<title>AppComponent </title>
<polygon fill="#80b1d3" stroke="black" points="1171.44,-214.8 1062.56,-214.8 1062.56,-178.8 1171.44,-178.8 1171.44,-214.8"/>
<text text-anchor="middle" x="1117" y="-192.6" font-family="Times,serif" font-size="14.00">AppComponent </text>
</g>
<!-- AppModule&#45;&gt;AppComponent  -->
<g id="edge13" class="edge">
<title>AppModule&#45;&gt;AppComponent </title>
<path fill="none" stroke="black" stroke-dasharray="1,5" d="M1117,-149.91C1117,-149.91 1117,-168.79 1117,-168.79"/>
<polygon fill="black" stroke="black" points="1113.5,-168.79 1117,-178.79 1120.5,-168.79 1113.5,-168.79"/>
</g>
<!-- AppRoutingModule -->
<g id="node13" class="node">
<title>AppRoutingModule</title>
<polygon fill="#8dd3c7" stroke="black" points="152.27,-84.8 149.27,-88.8 128.27,-88.8 125.27,-84.8 23.73,-84.8 23.73,-48.8 152.27,-48.8 152.27,-84.8"/>
<text text-anchor="middle" x="88" y="-62.6" font-family="Times,serif" font-size="14.00">AppRoutingModule</text>
</g>
<!-- AppRoutingModule&#45;&gt;AppModule -->
<g id="edge12" class="edge">
<title>AppRoutingModule&#45;&gt;AppModule</title>
<path fill="none" stroke="black" d="M88,-85.05C88,-107.82 88,-143.8 88,-143.8 88,-143.8 1065.07,-143.8 1065.07,-143.8"/>
<polygon fill="black" stroke="black" points="1065.07,-147.3 1075.07,-143.8 1065.07,-140.3 1065.07,-147.3"/>
</g>
</g>
</svg>
